{"title":"Shadow (2013) Telugu 720p BRrip x264 Junaid-Zia (PimpRG)","uid":8794509,"size":1613672352,"categoryP":"video","categoryS":"hd___movies","magnet":"?xt=urn:btih:5fbe98c6a81191fc9e5093f88a7e48bd32114b11&amp;dn=Shadow+%282013%29+Telugu+720p+BRrip+x264+Junaid-Zia+%28PimpRG%29&amp;tr=udp%3A%2F%2Ftracker.openbittorrent.com%3A80&amp;tr=udp%3A%2F%2Fopen.demonii.com%3A1337&amp;tr=udp%3A%2F%2Ftracker.coppersurfer.tk%3A6969&amp;tr=udp%3A%2F%2Fexodus.desync.com%3A6969","seeders":0,"leechers":1,"uploader":"junaidzia","files":15,"time":1376037736,"description":"[IMG]http://imageshack.us/a/img713/9855/x0yn.jpg[/IMG]\n\n\n\n[IMG]http://imageshack.us/a/img577/5786/kqvo.jpg[/IMG]\n\n             [url]http://www.imdb.com/title/tt2386295/[/url]\n\n\n[IMG]http://imageshack.us/a/img69/8950/lcn1.jpg[/IMG]\n\n[b]General[/b]\nFormat                         : Matroska\nFormat version                 : Version 4 / Version 2\nFile size                      : 1.50 GiB\nDuration                       : 2h 39mn\nOverall bit rate               : 1 344 Kbps\nEncoded date                   : UTC 2013-08-08 07:56:08\n\n[b]Video[/b]\nID                             : 1\nFormat                         : AVC\nFormat/Info                    : Advanced Video Codec\nFormat profile                 : &lt;a class=&quot;__cf_email__&quot; href=&quot;/cdn-cgi/l/email-protection&quot; data-cfemail=&quot;eea6878986aea2ddc0dc&quot;&gt;[email&amp;#160;protected]&lt;/a&gt;&lt;script cf-hash='f9e31' type=&quot;text/javascript&quot;&gt;\n/* &lt;![CDATA[ */!function(){try{var t=&quot;currentScript&quot;in document?document.currentScript:function(){for(var t=document.getElementsByTagName(&quot;script&quot;),e=t.length;e--;)if(t[e].getAttribute(&quot;cf-hash&quot;))return t[e]}();if(t&amp;&amp;t.previousSibling){var e,r,n,i,c=t.previousSibling,a=c.getAttribute(&quot;data-cfemail&quot;);if(a){for(e=&quot;&quot;,r=parseInt(a.substr(0,2),16),n=2;a.length-n;n+=2)i=parseInt(a.substr(n,2),16)^r,e+=String.fromCharCode(i);e=document.createTextNode(e),c.parentNode.replaceChild(e,c)}}}catch(u){}}();/* ]]&gt; */&lt;/script&gt;\nFormat settings, CABAC         : Yes\nFormat settings, ReFrames      : 4 frames\nCodec ID                       : V_MPEG4/ISO/AVC\nDuration                       : 2h 39mn\nWidth                          : 1 280 pixels\nHeight                         : 544 pixels\nDisplay aspect ratio           : 2.35:1\nFrame rate mode                : Constant\nFrame rate                     : 24.000 fps\nColor space                    : YUV\nChroma subsampling             : 4:2:0\nBit depth                      : 8 bits\nScan type                      : Progressive\nBits/(Pixel*Frame)             : 0.065\nStream size                    : 1.18 GiB (79%)\nTitle                          : Encoder Junaid Zia\nWriting library                : x264 core 135 r2345 f0c1c53\n\nLanguage                       : Telugu\nDefault                        : Yes\nForced                         : No\n\n[b]Audio[/b]\nID                             : 2\nFormat                         : AC-3\nFormat/Info                    : Audio Coding 3\nMode extension                 : CM (complete main)\nFormat settings, Endianness    : Big\nCodec ID                       : A_AC3\nDuration                       : 2h 39mn\nBit rate mode                  : Constant\nBit rate                       : 256 Kbps\nChannel(s)                     : 6 channels\nChannel positions              : Front: L C R, Side: L R, LFE\nSampling rate                  : 48.0 KHz\nBit depth                      : 16 bits\nCompression mode               : Lossy\nStream size                    : 292 MiB (19%)\nTitle                          : Encoder Junaid Zia\nLanguage                       : Telugu\nDefault                        : Yes\nForced                         : No\n\nText\n[b]Subtitles[/b]\t\t       : YES (Soft encoded)\t\nID                             : 3\nFormat                         : UTF-8\nCodec ID                       : S_TEXT/UTF8\nCodec ID/Info                  : UTF-8 Plain Text\nTitle                          : Encoder Junaid Zia\nLanguage                       : English\n\n\n\n[IMG]http://imageshack.us/a/img841/8287/yqde.jpg[/IMG]\n\n[IMG]http://imageshack.us/a/img600/5450/1cuy.jpg[/IMG]\n[IMG]http://imageshack.us/a/img191/1875/jvz0.jpg[/IMG]\n[IMG]http://imageshack.us/a/img835/1962/ulhm.jpg[/IMG]\n[IMG]http://imageshack.us/a/img22/9419/bj1k.jpg[/IMG]\n[IMG]http://imageshack.us/a/img4/4651/z8zj.jpg[/IMG]\n[IMG]http://imageshack.us/a/img690/6555/bf00.jpg[/IMG]\n[IMG]http://imageshack.us/a/img43/7378/hqj2.jpg[/IMG]\n[IMG]http://imageshack.us/a/img843/373/ddgr.jpg[/IMG]\n[IMG]http://imageshack.us/a/img7/5289/pw91.jpg[/IMG]\n[IMG]http://imageshack.us/a/img687/7498/djk2.jpg[/IMG]\n\n\n\n[IMG]http://imageshack.us/a/img42/8467/p2n9.jpg[/IMG]\n\nPimpRG Facebook Page:\n\nSujaidr Facebook Page:\n\n[b]Seed After Downloading, Remember Sharing is Caring.[/b]","torrent":{"xt":"urn:btih:5fbe98c6a81191fc9e5093f88a7e48bd32114b11","amp;dn":"Shadow+%282013%29+Telugu+720p+BRrip+x264+Junaid-Zia+%28PimpRG%29","amp;tr":["udp%3A%2F%2Ftracker.openbittorrent.com%3A80","udp%3A%2F%2Fopen.demonii.com%3A1337","udp%3A%2F%2Ftracker.coppersurfer.tk%3A6969","udp%3A%2F%2Fexodus.desync.com%3A6969"],"infoHash":"5fbe98c6a81191fc9e5093f88a7e48bd32114b11","infoHashBuffer":{"type":"Buffer","data":[95,190,152,198,168,17,145,252,158,80,147,248,138,126,72,189,50,17,75,17]},"announce":[],"urlList":[]}}